<svg width="8" height="11" viewBox="0 0 8 11" fill="none" xmlns="http://www.w3.org/2000/svg">
<path d="M0.0585138 0.0576792L0 0.11534L0.00702165 1.91896L0.0140433 3.72489L0.0889409 3.87943C0.12873 3.96476 0.205968 4.08008 0.259801 4.13774C0.38151 4.26921 0.634289 4.39606 0.812171 4.41913L0.943242 4.43527L0.929198 4.77201C0.884728 5.76377 0.751317 10.1737 0.763019 10.2475C0.800468 10.4989 0.987712 10.6672 1.25219 10.6949C1.53774 10.7226 1.78116 10.5658 1.85372 10.3051C1.8701 10.2382 1.85606 9.53478 1.7952 7.66196C1.74839 6.25735 1.70392 4.95653 1.6969 4.77201L1.68286 4.43527L1.81393 4.41913C1.99181 4.39606 2.24225 4.26921 2.3663 4.13774C2.42013 4.08008 2.49737 3.96476 2.53716 3.87943L2.61205 3.72489L2.61908 1.91896L2.6261 0.11534L2.56758 0.0576792C2.49035 -0.0184326 2.38268 -0.0184326 2.30778 0.0576792L2.24927 0.113033V1.47613V2.83923L2.19075 2.89458C2.15565 2.93148 2.1065 2.95224 2.06202 2.95224C2.01755 2.95224 1.9684 2.93148 1.93329 2.89458L1.87478 2.83923V1.47613V0.113033L1.81627 0.0576792C1.78116 0.0207767 1.73201 1.81198e-05 1.68754 1.81198e-05C1.64307 1.81198e-05 1.59391 0.0207767 1.55881 0.0576792L1.50029 0.113033V1.47613V2.83923L1.44178 2.89458C1.36688 2.97069 1.25922 2.97069 1.18432 2.89458L1.1258 2.83923V1.47613V0.113033L1.06729 0.0576792C1.03218 0.0207767 0.983031 1.81198e-05 0.938561 1.81198e-05C0.89409 1.81198e-05 0.844939 0.0207767 0.80983 0.0576792L0.751317 0.113033V1.47613V2.83923L0.692803 2.89458C0.657695 2.93148 0.608543 2.95224 0.564073 2.95224C0.519602 2.95224 0.470451 2.93148 0.435342 2.89458L0.376829 2.83923V1.47613V0.113033L0.318315 0.0576792C0.243417 -0.0184326 0.135752 -0.0184326 0.0585138 0.0576792Z" fill="white"/>
<path d="M6.05499 0.0346146C5.41368 0.205291 4.91046 0.899525 4.70918 1.89821C4.64364 2.22802 4.63662 2.88766 4.69747 3.15059C4.78407 3.52885 4.95728 3.84483 5.18665 4.04779C5.31772 4.16312 5.62199 4.31995 5.80221 4.36377C5.86775 4.37761 5.92626 4.39837 5.93797 4.40529C5.94733 4.41221 5.91222 5.71073 5.86073 7.29063C5.8069 8.86822 5.76945 10.199 5.77881 10.2475C5.81626 10.4989 6.0035 10.6672 6.26798 10.6949C6.55353 10.7226 6.79695 10.5658 6.8695 10.3051C6.88589 10.2382 6.86716 9.44944 6.79695 7.3183C6.74546 5.72457 6.71035 4.41452 6.71971 4.40529C6.73141 4.39837 6.79227 4.37761 6.85546 4.36377C6.921 4.34763 7.04739 4.29919 7.13633 4.25768C7.55061 4.06394 7.7987 3.74796 7.9368 3.23132C7.99063 3.03297 7.99765 2.96608 7.99999 2.58321C7.99999 2.23033 7.99297 2.1127 7.9485 1.90051C7.7753 1.04944 7.37272 0.394417 6.86248 0.136098C6.598 0.00232506 6.31011 -0.0322714 6.05499 0.0346146Z" fill="white"/>
</svg>
